<?xml version="1.0" standalone="no"?>
<!DOCTYPE svg PUBLIC "-//W3C//DTD SVG 20010904//EN"
 "http://www.w3.org/TR/2001/REC-SVG-20010904/DTD/svg10.dtd">
<svg version="1.0" xmlns="http://www.w3.org/2000/svg"
 width="1024.000000pt" height="1024.000000pt" viewBox="0 0 1024.000000 1024.000000"
 preserveAspectRatio="xMidYMid meet">
<metadata>
Created by potrace 1.14, written by Peter Selinger 2001-2017
</metadata>
<g transform="translate(0.000000,1024.000000) scale(0.100000,-0.100000)"
fill="#000000" stroke="none">
<path d="M5010 8394 c-198 -23 -370 -54 -505 -90 -566 -150 -1094 -453 -1506
-864 -384 -383 -666 -858 -830 -1400 -99 -329 -132 -560 -132 -930 0 -275 15
-409 78 -681 73 -319 223 -690 385 -950 185 -299 443 -599 686 -801 180 -149
474 -343 663 -437 343 -172 663 -275 1034 -333 168 -26 557 -36 720 -19 731
78 1468 404 1941 861 331 320 618 729 783 1120 104 244 196 596 228 870 32
276 30 631 -6 860 -18 117 -79 386 -109 485 -72 233 -232 583 -369 803 -154
248 -367 512 -553 685 -138 129 -145 134 -288 237 -388 278 -846 469 -1320
550 -284 48 -660 63 -900 34z m500 -314 c400 -23 738 -110 1080 -278 426 -209
759 -484 1031 -852 140 -189 176 -245 285 -451 165 -311 264 -624 304 -964 22
-180 25 -245 10 -245 -5 0 -7 14 -4 33 4 24 3 28 -5 17 -9 -13 -11 -13 -11 2
0 9 6 19 13 21 6 3 1 6 -12 6 -16 1 -21 5 -17 16 6 18 5 18 -28 5 -24 -9 -25
-8 -14 10 7 11 17 20 23 20 5 0 3 5 -5 10 -18 12 -30 13 -29 3 3 -20 -2 -34
-11 -28 -16 10 -12 37 8 51 16 12 16 12 -3 11 -14 -1 -20 4 -19 16 2 14 -1 15
-12 6 -16 -13 -19 -33 -4 -24 6 3 10 2 10 -4 0 -21 -21 -21 -29 1 -7 17 -10
19 -10 6 -1 -19 -41 -26 -41 -8 0 6 7 10 16 10 14 0 14 2 0 15 -20 20 -26 19
-26 -4 0 -11 -4 -23 -10 -26 -6 -4 -10 5 -10 19 0 32 -20 34 -39 4 -11 -18
-15 -20 -25 -7 -6 8 -18 14 -26 14 -8 0 -15 6 -15 14 0 8 7 16 15 18 13 4 13
3 0 -6 -8 -5 -11 -13 -7 -18 9 -8 27 15 27 35 0 6 -9 12 -19 12 -11 0 -22 -6
-24 -12 -3 -7 -6 -3 -6 9 -1 33 -21 39 -21 6 0 -15 9 -131 20 -258 11 -126 23
-266 26 -310 15 -186 -61 -690 -118 -782 -21 -35 -22 -36 -53 -24 -18 7 -20
18 -21 102 0 52 -4 117 -7 144 l-7 50 14 -45 13 -45 7 35 c16 87 36 356 36
489 0 128 -39 544 -56 590 -3 10 -11 3 -22 -20 -15 -29 -22 -34 -52 -32 -19 0
-42 -6 -51 -13 -9 -8 -24 -12 -33 -8 -12 5 -15 2 -10 -9 3 -9 13 -18 22 -20
16 -4 16 -5 0 -6 -20 -1 -50 38 -41 52 3 6 1 7 -6 3 -6 -4 -9 -11 -7 -15 3 -4
-9 -13 -25 -20 -28 -12 -39 -31 -18 -31 5 0 7 -5 4 -10 -4 -6 -11 -8 -16 -4
-6 3 -13 -3 -16 -15 -12 -45 -23 -18 -23 55 0 70 -27 233 -51 314 -19 62 -81
193 -122 260 -101 163 -204 239 -402 296 -91 26 -202 39 -451 50 l-152 7 -5
176 c-5 197 -14 239 -81 397 -85 202 -170 296 -341 379 -156 76 -324 110 -506
103 -99 -4 -128 -9 -218 -41 -226 -80 -352 -184 -461 -382 -69 -125 -101 -231
-111 -375 -5 -69 -11 -131 -14 -137 -8 -22 -25 -14 -25 12 0 14 -4 25 -10 25
-5 0 -14 15 -20 33 l-10 32 6 -35 c3 -19 9 -228 15 -465 10 -440 6 -734 -12
-815 -17 -75 -79 -210 -137 -299 -146 -221 -322 -343 -497 -343 -31 0 -34 -2
-30 -26 2 -15 7 -83 10 -152 16 -340 155 -641 420 -906 226 -228 478 -364 793
-431 113 -24 149 -27 327 -27 174 -1 213 2 304 22 349 78 695 290 901 551 l62
79 66 -49 c37 -27 75 -55 86 -62 18 -12 17 -15 -18 -70 -75 -116 -241 -283
-386 -388 -38 -27 -205 -126 -257 -153 -200 -101 -521 -176 -750 -176 -157 1
-422 47 -603 105 -430 139 -807 479 -1034 932 -105 211 -140 371 -134 613 l3
138 -45 7 c-136 19 -247 81 -358 200 -81 87 -121 150 -174 275 -74 174 -88
306 -95 865 -3 231 -9 424 -13 428 -13 14 -62 -25 -77 -62 -38 -91 -68 -732
-44 -949 12 -113 45 -284 66 -346 9 -26 11 -45 5 -55 -8 -13 -9 -12 -10 7 0
13 -4 20 -10 17 -6 -4 -8 -11 -5 -16 8 -12 -6 -11 -25 1 -13 8 -12 10 3 10 9
0 17 5 17 10 0 6 -11 10 -24 10 -23 0 -24 -3 -19 -37 9 -62 34 -145 59 -195
13 -26 54 -128 90 -225 149 -406 186 -491 307 -708 85 -152 230 -333 444 -551
242 -247 352 -336 538 -433 44 -23 91 -50 105 -61 l25 -19 -25 5 c-23 5 -23 3
10 -26 32 -29 33 -31 10 -25 -14 5 -42 19 -62 31 -21 13 -42 24 -46 24 -24 0
-243 124 -372 210 -475 318 -842 833 -1015 1425 -58 197 -70 235 -77 235 -8 0
-11 -19 -9 -55 1 -18 0 -18 -11 3 -6 12 -15 22 -20 22 -12 0 -10 -18 4 -22 6
-2 13 -31 16 -66 2 -34 8 -62 13 -62 5 0 9 -5 9 -11 0 -8 -13 -9 -42 -4 -81
14 -104 15 -89 6 8 -5 20 -7 28 -4 10 4 11 -2 7 -26 -5 -24 -3 -31 9 -31 18 0
30 27 14 33 -6 2 -3 6 7 10 10 4 15 3 11 -3 -4 -6 1 -7 12 -3 16 6 16 5 4 -10
-8 -10 -11 -20 -7 -24 3 -3 6 0 6 7 0 10 5 9 18 -3 16 -14 19 -38 13 -82 -1
-5 -5 -4 -10 4 -5 8 -26 15 -47 16 -27 2 -40 8 -45 22 -4 11 -14 23 -23 26
-10 4 -13 1 -9 -9 6 -17 -8 -19 -24 -3 -8 8 -13 8 -17 0 -10 -16 -42 -13 -60
5 -9 8 -20 13 -24 10 -5 -3 -21 49 -36 116 -23 99 -25 122 -14 129 10 7 9 9
-4 9 -10 0 -18 3 -18 8 0 4 -6 72 -14 152 -31 313 -29 524 5 770 26 189 98
444 188 670 95 237 300 588 445 760 163 194 411 418 616 556 58 39 132 89 166
112 82 56 291 159 446 221 164 65 327 112 523 151 247 48 416 57 725 40z m85
-903 c217 -71 361 -212 436 -427 21 -60 23 -86 27 -345 l4 -280 294 -2 c339
-3 395 -11 523 -74 172 -85 301 -263 346 -477 30 -139 12 -363 -37 -461 -24
-48 -26 -49 -93 -32 -69 18 -226 25 -285 12 -30 -6 -93 -30 -139 -52 -68 -32
-103 -58 -173 -127 -49 -47 -100 -105 -114 -129 -14 -25 -35 -45 -48 -49 -13
-3 -83 -4 -155 -2 l-132 3 1 -345 c2 -385 0 -403 -68 -540 -28 -57 -58 -97
-127 -166 -143 -145 -269 -197 -480 -197 -326 -1 -575 170 -660 455 -27 92
-34 175 -37 491 l-3 307 -127 0 c-71 0 -128 4 -128 9 0 4 25 60 55 125 l56
116 187 0 187 0 -3 -417 c-2 -274 1 -440 8 -482 25 -142 110 -256 238 -318 67
-32 87 -37 171 -41 55 -2 121 1 153 7 119 25 235 106 293 205 49 84 53 127 57
610 3 247 1 440 -2 430 -5 -12 -17 -20 -36 -20 -16 -1 -32 -2 -36 -3 -5 -1 -8
-14 -8 -30 0 -25 -5 -30 -32 -37 -18 -3 -39 -15 -45 -24 -15 -21 -103 -32
-103 -14 0 6 -11 16 -24 22 -19 8 -26 21 -30 54 -10 82 -13 209 -4 214 4 3 6
10 2 15 -3 6 4 7 20 3 14 -3 26 -2 26 3 0 5 46 8 103 7 56 -2 102 -3 102 -4 0
0 29 -3 65 -5 36 -3 76 -7 90 -10 14 -4 124 -7 246 -9 121 -1 226 -6 232 -10
7 -4 17 -4 24 0 7 4 24 9 38 10 50 5 113 25 138 45 34 26 76 89 61 89 -7 0 -2
8 9 19 12 10 22 25 22 33 0 8 4 18 9 24 14 16 30 94 19 94 -6 0 -8 9 -5 19 5
19 -9 37 -42 56 -8 5 -7 -2 5 -20 26 -40 24 -112 -5 -153 -13 -18 -34 -37 -47
-42 -21 -8 -353 -7 -911 5 l-223 4 0 -576 0 -575 -33 -33 c-58 -58 -114 -56
-173 6 l-28 29 3 570 3 570 -311 0 -311 0 0 88 c0 111 9 162 27 162 11 0 11 4
-2 24 -12 17 -15 43 -13 92 3 75 4 76 98 88 87 12 121 36 164 116 l14 25 -146
0 -146 0 -7 30 c-4 17 -10 67 -13 113 l-5 82 44 0 45 0 -5 68 c-2 37 -7 157
-10 267 -5 181 -3 207 15 274 26 91 35 109 104 202 98 130 211 210 356 251 53
15 92 17 215 14 129 -3 161 -7 230 -29z m2028 -1764 c-7 -2 -19 -2 -25 0 -7 3
-2 5 12 5 14 0 19 -2 13 -5z m-100 -25 c3 -8 -5 -14 -19 -14 -25 -2 -33 11
-11 19 20 9 25 8 30 -5z m97 -38 c-6 -11 -13 -20 -16 -20 -2 0 0 9 6 20 6 11
13 20 16 20 2 0 0 -9 -6 -20z m-223 -202 c-3 -8 -6 -5 -6 6 -1 11 2 17 5 13 3
-3 4 -12 1 -19z m-2189 -16 c15 -20 7 -89 -14 -113 -8 -8 -14 -25 -14 -36 0
-11 -6 -26 -14 -32 -8 -7 -18 -26 -22 -44 l-6 -31 -18 22 c-10 12 -21 22 -25
22 -4 0 -3 -6 2 -12 13 -17 23 -69 12 -62 -5 3 -9 11 -9 17 0 7 -9 13 -21 13
-18 0 -18 -2 -5 -12 9 -6 16 -15 16 -19 0 -4 -6 -2 -14 4 -7 6 -20 10 -27 8
-8 -2 -11 -2 -7 0 4 3 1 12 -8 20 -8 9 -13 22 -10 29 3 8 -1 14 -10 14 -11 0
-12 -4 -4 -19 17 -33 11 -35 -16 -5 -15 16 -23 24 -20 17 9 -17 -9 -24 -36
-14 l-23 10 25 2 c17 1 20 3 8 6 -10 2 -21 17 -24 31 -3 15 -7 33 -10 40 -2 9
-43 12 -157 12 -121 0 -157 3 -166 14 -7 8 -8 17 -3 20 5 3 7 22 5 43 -6 56
10 63 146 64 64 1 163 5 221 9 140 10 231 3 248 -18z m2158 -122 c1 -45 -1
-48 -18 -39 -10 5 -18 11 -18 13 0 6 30 76 33 76 1 0 3 -22 3 -50z m-4506 -81
c0 -6 -4 -7 -10 -4 -5 3 -10 11 -10 16 0 6 5 7 10 4 6 -3 10 -11 10 -16z m14
-35 c3 -8 2 -12 -4 -9 -6 3 -10 10 -10 16 0 14 7 11 14 -7z m4181 -24 c166
-25 333 -147 409 -300 48 -99 66 -168 66 -262 0 -164 -50 -288 -164 -404 -82
-83 -158 -125 -272 -149 -85 -18 -118 -18 -215 -1 -281 50 -462 296 -446 606
13 255 177 451 423 504 84 18 110 18 199 6z m-1388 -60 c2 -11 -2 -20 -7 -20
-6 0 -10 7 -10 15 0 8 -6 15 -12 15 -9 0 -8 3 2 10 17 11 23 6 27 -20z m623
-254 c0 -2 -13 -6 -30 -8 -16 -3 -30 -1 -30 4 0 4 14 8 30 8 17 0 30 -2 30 -4z
m-3663 -228 c12 -6 20 -15 17 -20 -3 -4 2 -8 10 -8 10 0 13 6 10 15 -4 10 0
15 14 15 21 0 37 -26 22 -35 -6 -4 -10 -11 -10 -16 0 -6 4 -8 8 -5 4 2 14 1
22 -5 11 -6 6 -9 -17 -9 -32 0 -43 -12 -23 -25 6 -3 10 -1 10 4 0 6 10 11 23
11 40 0 -33 -36 -86 -42 -44 -5 -47 -4 -47 18 0 13 -4 24 -10 24 -5 0 -10 5
-10 12 0 6 10 2 23 -10 32 -30 67 -29 67 2 0 31 -22 48 -53 40 -14 -3 -32 -2
-39 2 -9 6 -4 11 17 15 28 6 29 7 8 14 -13 4 -23 11 -23 15 0 10 36 3 67 -12z
m-5 -73 c0 -5 -5 -11 -11 -13 -6 -2 -11 4 -11 13 0 9 5 15 11 13 6 -2 11 -8
11 -13z m-2 -75 c0 -5 -2 -10 -4 -10 -3 0 -8 5 -11 10 -3 6 -1 10 4 10 6 0 11
-4 11 -10z m-63 -32 c-3 -8 -6 -5 -6 6 -1 11 2 17 5 13 3 -3 4 -12 1 -19z
m193 -103 c0 -8 -2 -15 -4 -15 -2 0 -6 7 -10 15 -3 8 -1 15 4 15 6 0 10 -7 10
-15z m1775 -1375 c3 -6 -1 -7 -9 -4 -18 7 -21 14 -7 14 6 0 13 -4 16 -10z"/>
<path d="M6902 6897 c-54 -40 -127 -44 -185 -9 -28 16 -37 18 -37 7 0 -7 9
-17 20 -20 11 -4 18 -10 16 -14 -14 -22 66 -56 95 -41 10 6 33 10 51 10 24 0
29 3 19 9 -12 8 -9 11 12 16 15 4 27 10 27 14 0 4 10 7 21 8 28 2 29 5 22 31
-7 28 -9 28 -61 -11z"/>
<path d="M3568 6773 c5 -21 7 -23 10 -9 2 10 0 22 -6 28 -6 6 -7 0 -4 -19z"/>
<path d="M4250 6796 c0 -2 7 -9 15 -16 9 -7 15 -8 15 -2 0 5 -7 12 -15 16 -8
3 -15 4 -15 2z"/>
<path d="M4310 6746 c0 -2 8 -10 18 -17 15 -13 16 -12 3 4 -13 16 -21 21 -21
13z"/>
<path d="M3520 6650 c-45 -49 -47 -50 -105 -50 -43 0 -70 6 -94 21 -46 28 -70
20 -125 -42 -77 -85 -76 -78 -76 -684 0 -578 -1 -565 60 -724 58 -149 160
-268 290 -336 66 -34 85 -39 160 -43 114 -5 206 17 286 69 71 46 159 134 203
205 42 66 88 188 100 265 6 41 7 260 3 599 l-7 535 -27 51 c-22 42 -96 124
-113 124 -2 0 -21 -11 -41 -25 -40 -27 -99 -33 -137 -14 -12 6 -40 28 -61 48
l-39 36 21 -37 c13 -23 16 -35 8 -32 -10 4 -12 -2 -9 -20 3 -13 0 -47 -6 -75
-12 -59 -6 -77 46 -127 29 -28 42 -33 109 -39 105 -10 98 -30 -21 -60 -230
-59 -343 -124 -450 -256 -131 -162 -206 -315 -221 -453 -11 -95 -20 -40 -27
159 -4 99 -13 223 -22 275 -29 182 -16 381 24 372 6 -1 25 -4 42 -6 16 -1 35
-8 41 -14 7 -7 34 -12 60 -12 41 0 50 4 58 23 6 12 14 29 19 37 5 8 17 33 27
55 11 22 23 43 28 46 5 4 6 11 2 17 -3 6 -2 12 3 14 6 1 12 26 14 54 3 28 10
60 16 72 16 31 12 28 -39 -28z m544 -557 c2 -16 8 -67 11 -114 l7 -87 -54 -7
c-159 -20 -304 -164 -352 -351 -19 -72 -22 -184 -5 -184 7 0 9 11 6 28 -9 44
22 120 44 106 4 -2 11 1 15 7 5 8 3 9 -5 4 -9 -5 -12 -2 -9 11 2 11 10 18 16
16 11 -2 17 11 13 32 -1 5 5 6 14 2 9 -3 14 -2 11 3 -3 4 12 24 34 44 22 19
40 40 40 44 0 5 16 15 35 23 19 8 35 17 35 22 0 4 8 8 18 8 9 0 31 8 47 18 37
23 69 32 83 23 16 -10 37 -298 27 -378 -6 -52 -7 -53 -39 -53 -55 0 -95 49
-98 120 -1 40 -2 41 -5 10 -6 -44 12 -106 32 -114 8 -3 15 -15 15 -26 0 -11 4
-20 8 -20 18 0 31 -74 21 -119 -19 -85 -66 -145 -141 -181 -27 -12 -48 -25
-48 -30 0 -4 -13 -13 -30 -20 -17 -7 -30 -20 -30 -30 0 -77 -138 -8 -233 116
-69 91 -127 273 -127 404 0 203 104 437 251 564 89 77 225 128 356 135 27 1
32 -3 37 -26z"/>
<path d="M3690 5256 c0 -11 30 -66 36 -66 2 0 -3 15 -12 33 -19 36 -24 44 -24
33z"/>
<path d="M7466 6435 c-32 -24 -103 -29 -147 -12 -53 21 -50 4 5 -23 53 -25 98
-20 142 15 31 25 31 42 0 20z"/>
<path d="M7730 5975 c0 -5 5 -17 10 -25 5 -8 10 -10 10 -5 0 6 -5 17 -10 25
-5 8 -10 11 -10 5z"/>
<path d="M7831 5604 c0 -11 3 -14 6 -6 3 7 2 16 -1 19 -3 4 -6 -2 -5 -13z"/>
<path d="M2694 4952 c3 -6 1 -23 -4 -38 -6 -15 -8 -35 -4 -43 10 -25 12 -81 3
-75 -5 3 -6 -3 -2 -12 6 -15 7 -15 18 -1 9 12 11 5 12 -36 1 -29 6 -63 12 -77
9 -19 10 4 5 100 -3 81 -10 130 -18 140 -8 8 -11 20 -9 27 2 6 -1 15 -8 19 -7
4 -9 3 -5 -4z"/>
<path d="M2665 4587 c2 -17 -1 -38 -8 -47 -6 -8 -7 -12 -3 -8 13 11 36 -11 29
-28 -10 -27 6 -14 21 18 17 34 13 50 -7 28 -10 -10 -9 -11 2 -5 9 5 12 4 7 -3
-4 -6 -14 -8 -22 -5 -13 5 -13 7 -2 14 11 7 10 11 -2 19 -10 6 -11 10 -2 10
17 0 15 27 -2 33 -12 5 -14 -1 -11 -26z"/>
<path d="M2636 4588 c-3 -13 -1 -27 4 -32 7 -7 10 1 10 22 0 37 -5 41 -14 10z"/>
<path d="M2610 4502 c0 -14 6 -22 16 -22 14 0 15 3 3 18 -7 9 -15 19 -16 21
-2 2 -3 -5 -3 -17z"/>
<path d="M2700 4479 c0 -6 -9 -9 -20 -6 -11 3 -18 1 -14 -4 9 -15 51 -10 51 6
0 8 -4 15 -9 15 -4 0 -8 -5 -8 -11z"/>
<path d="M2676 4374 c-4 -9 -4 -19 -2 -21 8 -8 26 8 26 23 0 19 -16 18 -24 -2z"/>
<path d="M2713 4372 c1 -14 5 -18 11 -12 7 7 6 14 -1 21 -9 9 -12 7 -10 -9z"/>
<path d="M5305 6983 c-101 -9 -218 -71 -279 -147 -78 -96 -150 -256 -116 -256
6 0 10 6 10 14 0 7 7 19 15 26 8 7 13 16 10 20 -3 5 1 15 9 23 8 8 12 17 9 21
-4 3 -1 6 5 6 7 0 12 7 12 15 0 9 9 15 22 15 21 0 21 0 2 15 -18 14 -18 14 9
15 18 0 27 5 27 16 0 8 5 12 10 9 6 -3 10 -1 10 5 0 6 5 8 10 5 6 -3 10 -1 10
4 0 6 9 11 20 11 11 0 20 7 20 15 0 18 17 20 22 3 3 -7 10 -8 17 -4 11 7 11
10 0 18 -11 7 -9 9 6 7 39 -3 60 1 48 9 -7 4 13 9 43 10 31 1 64 7 74 12 36
19 109 11 180 -20 38 -16 73 -30 78 -30 6 0 29 -12 51 -27 31 -20 41 -33 41
-53 0 -14 7 -35 15 -46 8 -12 12 -24 9 -26 -2 -3 11 -29 31 -58 19 -28 35 -61
35 -71 0 -10 4 -19 9 -19 18 0 24 -60 30 -300 l7 -245 2 310 c2 340 -3 380
-56 479 -35 65 -119 146 -186 180 -29 15 -82 31 -117 36 -64 10 -79 10 -154 3z"/>
<path d="M5234 6310 c0 -63 1 -89 3 -57 2 31 2 83 0 115 -2 31 -3 5 -3 -58z"/>
<path d="M5830 5902 c0 -85 70 -133 192 -132 29 0 78 -1 108 -4 156 -11 260
-18 305 -21 125 -7 298 -56 317 -89 5 -9 16 -16 23 -16 8 0 15 -4 15 -9 0 -4
10 -19 23 -33 12 -14 30 -40 39 -59 17 -34 59 -141 60 -156 1 -5 11 -24 24
-44 14 -22 24 -56 26 -85 l3 -49 18 67 c32 123 17 270 -39 380 -32 63 -114
151 -171 185 -88 51 -114 55 -498 63 -198 5 -379 11 -402 15 -39 7 -43 6 -43
-13z"/>
<path d="M5231 5705 c-1 -55 -4 -110 -7 -122 -5 -17 -2 -23 10 -23 13 0 16 12
15 73 0 39 -4 95 -9 122 -6 43 -8 37 -9 -50z"/>
<path d="M6946 5185 c-3 -9 -6 -22 -5 -28 0 -7 5 -1 10 12 5 13 8 26 5 28 -2
2 -6 -3 -10 -12z"/>
<path d="M6298 5033 c7 -3 16 -2 19 1 4 3 -2 6 -13 5 -11 0 -14 -3 -6 -6z"/>
<path d="M5795 4999 c-4 -6 -13 -8 -21 -5 -8 3 -11 0 -7 -10 6 -16 23 -19 23
-3 0 5 5 7 10 4 6 -3 10 1 10 9 0 19 -6 20 -15 5z"/>
<path d="M5848 5003 c6 -2 18 -2 25 0 6 3 1 5 -13 5 -14 0 -19 -2 -12 -5z"/>
<path d="M6238 5003 c34 -2 90 -2 125 0 34 2 6 3 -63 3 -69 0 -97 -1 -62 -3z"/>
<path d="M5708 4913 c7 -3 16 -2 19 1 4 3 -2 6 -13 5 -11 0 -14 -3 -6 -6z"/>
<path d="M5595 4880 c3 -5 8 -10 11 -10 2 0 4 5 4 10 0 6 -5 10 -11 10 -5 0
-7 -4 -4 -10z"/>
<path d="M6899 4637 c-151 -43 -239 -160 -239 -319 0 -84 11 -85 16 -1 2 32 6
69 10 82 7 31 39 73 48 63 4 -4 12 1 17 10 5 10 16 15 24 12 9 -4 15 0 15 10
0 10 9 16 23 16 12 0 33 7 45 16 21 15 43 15 189 2 7 -1 10 -5 7 -9 -2 -5 13
-17 34 -28 21 -11 44 -27 51 -35 8 -9 19 -16 25 -16 14 0 76 -64 76 -79 0 -6
-8 -11 -17 -12 -14 0 -15 -2 -3 -6 16 -6 34 -31 35 -48 1 -5 6 -9 13 -7 20 4
24 -22 12 -68 -7 -27 -16 -40 -24 -37 -9 4 -12 -2 -9 -17 3 -13 -2 -28 -11
-36 -14 -11 -16 -11 -11 3 4 8 1 18 -6 23 -8 4 -10 3 -5 -4 4 -6 2 -21 -4 -32
-8 -15 -8 -20 2 -20 21 -1 -32 -40 -54 -40 -10 0 -16 -4 -13 -10 3 -6 -1 -7
-9 -4 -9 3 -16 2 -16 -3 0 -5 -7 -10 -15 -10 -21 0 -19 4 13 21 15 8 21 15 14
16 -7 0 -10 5 -7 10 4 6 -5 10 -20 10 -28 0 -44 25 -26 43 15 15 14 27 -4 27
-8 0 -15 5 -15 10 0 6 5 10 11 10 6 0 9 7 6 15 -4 8 -2 17 3 20 6 4 10 15 10
25 0 10 4 20 8 22 4 2 5 17 1 33 l-6 30 -7 -38 c-15 -67 -90 -107 -147 -76
-11 5 -29 25 -39 42 l-20 32 3 -42 c1 -24 5 -43 8 -43 3 0 6 -23 6 -50 0 -38
-4 -50 -13 -46 -19 7 -29 -14 -13 -26 11 -8 10 -8 -4 -4 -10 3 -34 6 -53 6
-22 0 -40 7 -51 19 -9 11 -20 18 -25 15 -4 -3 -17 10 -28 28 -11 18 -20 28
-20 22 0 -14 32 -57 79 -107 122 -129 397 -90 483 69 37 68 60 160 53 209 -16
101 -58 191 -113 237 -76 64 -200 91 -293 65z m189 -564 c-10 -2 -26 -2 -35 0
-10 3 -2 5 17 5 19 0 27 -2 18 -5z"/>
<path d="M6876 4335 c-3 -9 -6 -24 -5 -33 0 -9 5 -4 10 12 9 32 6 48 -5 21z"/>
<path d="M6670 4224 c0 -10 5 -26 10 -34 8 -11 9 -7 4 15 -8 37 -14 45 -14 19z"/>
<path d="M7111 4145 c4 -22 -2 -34 -18 -38 -15 -4 -15 -5 2 -6 11 0 27 4 35 9
13 8 13 12 -3 27 -10 10 -17 14 -16 8z"/>
<path d="M7170 4135 c-14 -8 -21 -14 -16 -15 5 0 3 -7 -4 -15 -9 -11 -9 -15
-1 -15 7 0 9 -4 6 -10 -7 -12 5 -13 21 -2 8 5 27 75 20 72 -1 -1 -12 -7 -26
-15z"/>
</g>
</svg>
